<svg width="28" height="28" viewBox="0 0 28 28" fill="none" xmlns="http://www.w3.org/2000/svg">
<g id="material-symbols:shopping-cart-outline-rounded">
<path id="shopping-bag 1 (Traced)" fill-rule="evenodd" clip-rule="evenodd" d="M16.6016 2.07188C14.9716 2.42082 13.6606 3.74399 13.3243 5.37967C13.2703 5.64243 13.25 6.01031 13.25 6.72769V7.71431L11.3632 7.71449C9.56326 7.71464 9.46946 7.71895 9.32373 7.80785C9.23968 7.8591 9.12905 7.96975 9.07782 8.05382C8.98786 8.20138 8.98463 8.29487 8.98449 10.7737L8.9843 13.3408L5.73816 13.341C2.58169 13.3412 2.48779 13.3437 2.33925 13.4344C2.2552 13.4856 2.14457 13.5963 2.09334 13.6804C2.00183 13.8304 2.00015 13.9271 2.00001 19.0218C1.99982 23.9725 2.00385 24.2234 2.08813 24.4943C2.20977 24.8852 2.36835 25.1393 2.66672 25.4217C2.94924 25.6889 3.16505 25.8128 3.54353 25.925C3.7742 25.9935 4.75644 26.0005 13.9968 26C24.9267 25.9994 24.3973 26.0107 24.8717 25.7681C25.1377 25.632 25.5537 25.2387 25.7054 24.9797C25.7704 24.8688 25.8633 24.6504 25.9119 24.4943C25.9969 24.2209 26.0002 23.9148 26 16.2085C25.9999 8.30659 25.9987 8.20471 25.9067 8.05382C25.8554 7.96975 25.7448 7.8591 25.6608 7.80785C25.515 7.71895 25.4213 7.71464 23.6284 7.71449L21.7488 7.71431L21.7184 7.18682C21.7017 6.89673 21.6879 6.45274 21.6879 6.20021C21.6869 4.20448 20.2689 2.47371 18.3028 2.06846C17.8533 1.97581 17.0428 1.97745 16.6016 2.07188ZM18.2238 3.52292C18.9314 3.73091 19.5934 4.26154 19.914 4.8776C20.2139 5.4539 20.2449 5.61416 20.2695 6.71794L20.2918 7.71431H17.5024H14.713L14.679 6.98914C14.6297 5.93609 14.6999 5.49577 15.0122 4.90104C15.4066 4.14971 16.1617 3.60075 17.0075 3.45033C17.3277 3.39341 17.8993 3.4275 18.2238 3.52292ZM13.2971 9.5781C13.2972 9.95151 13.3143 10.0632 13.3904 10.1881C13.6664 10.6409 14.3336 10.6409 14.6096 10.1881C14.6857 10.0632 14.7028 9.95151 14.7029 9.5781L14.7031 9.12094H17.5157H20.3282L20.3284 9.5781C20.3286 9.95151 20.3456 10.0632 20.4217 10.1881C20.6978 10.6409 21.3649 10.6409 21.641 10.1881C21.7171 10.0632 21.7342 9.95151 21.7343 9.5781L21.7345 9.12094H23.1648H24.595L24.5828 16.6196C24.5705 24.1105 24.5704 24.1183 24.4738 24.2476C24.4207 24.3189 24.3189 24.4206 24.2478 24.4738C24.1212 24.5683 24.0609 24.5707 21.4908 24.5837L18.8634 24.597L18.9033 24.4899C18.9253 24.4311 18.9491 22.0092 18.9563 19.108C18.9692 13.9065 18.9681 13.8311 18.8758 13.6804C18.8243 13.5963 18.7134 13.4856 18.6294 13.4344C18.4801 13.3433 18.3852 13.3412 14.4336 13.341L10.3906 13.3408V11.2309V9.12094H11.8437H13.2969L13.2971 9.5781ZM17.5517 19.4328C17.5392 24.082 17.5384 24.1192 17.4425 24.2476C17.3893 24.3189 17.2876 24.4206 17.2164 24.4738C17.087 24.5704 17.0798 24.5705 10.4843 24.5705C3.88886 24.5705 3.8816 24.5704 3.75227 24.4738C3.68106 24.4206 3.57934 24.3189 3.52619 24.2476C3.43028 24.1192 3.42943 24.082 3.41692 19.4328L3.40431 14.7475H10.4843H17.5643L17.5517 19.4328ZM6.60493 16.2476C6.3076 16.429 6.26588 16.5633 6.2657 17.34C6.26551 18.1135 6.33563 18.5536 6.5455 19.0956C6.95177 20.145 7.90077 21.0942 8.94985 21.5006C9.91849 21.8758 11.0502 21.8758 12.0188 21.5006C13.0679 21.0942 14.0169 20.145 14.4231 19.0956C14.633 18.5536 14.7031 18.1135 14.7029 17.34C14.7028 16.7306 14.6915 16.6279 14.6096 16.4936C14.3367 16.0457 13.6661 16.0405 13.3964 16.4841C13.3253 16.601 13.3047 16.7584 13.2843 17.3402C13.2677 17.8133 13.2325 18.1398 13.1798 18.3109C12.8864 19.2632 12.1649 19.9781 11.2109 20.2617C10.8332 20.3739 10.1354 20.3739 9.75775 20.2617C8.80373 19.9781 8.08222 19.2632 7.78887 18.3109C7.73614 18.1398 7.70098 17.8133 7.68439 17.3402C7.66395 16.7584 7.64337 16.601 7.57226 16.4841C7.44785 16.2795 7.21891 16.1544 6.96864 16.1544C6.84067 16.1544 6.69761 16.1911 6.60493 16.2476Z" fill="black"/>
</g>
</svg>
