<svg width="23.333374" height="23.333374" viewBox="0 0 23.3334 23.3334" fill="none" xmlns="http://www.w3.org/2000/svg" xmlns:xlink="http://www.w3.org/1999/xlink">
	<desc>
			Created with Pixso.
	</desc>
	<defs/>
	<path id="Vector" d="M5.83337 2.33337C5.83337 1.71448 6.07922 1.12097 6.51672 0.683472C6.95435 0.24585 7.54785 0 8.16663 0L15.1666 0C15.7855 0 16.379 0.24585 16.8165 0.683472C17.2542 1.12097 17.5 1.71448 17.5 2.33337L17.5 4.66663L22.1666 4.66663C22.4761 4.66663 22.7728 4.78955 22.9916 5.00842C23.2104 5.22717 23.3334 5.52393 23.3334 5.83337C23.3334 6.1427 23.2104 6.43945 22.9916 6.65833C22.7728 6.87708 22.4761 7 22.1666 7L20.9196 7L19.908 21.1656C19.8661 21.7544 19.6027 22.3053 19.1708 22.7075C18.7389 23.1097 18.1707 23.3334 17.5804 23.3334L5.75171 23.3334C5.1615 23.3334 4.59326 23.1097 4.16138 22.7075C3.72949 22.3053 3.46606 21.7544 3.42419 21.1656L2.41504 7L1.16663 7C0.8573 7 0.560547 6.87708 0.341675 6.65833C0.122925 6.43945 0 6.1427 0 5.83337C0 5.52393 0.122925 5.22717 0.341675 5.00842C0.560547 4.78955 0.8573 4.66663 1.16663 4.66663L5.83337 4.66663L5.83337 2.33337ZM8.16663 4.66663L15.1666 4.66663L15.1666 2.33337L8.16663 2.33337L8.16663 4.66663ZM4.75305 7L5.75281 21L17.5817 21L18.5815 7L4.75305 7ZM9.33337 9.33337C9.6427 9.33337 9.93945 9.4563 10.1583 9.67505C10.3771 9.8938 10.5 10.1906 10.5 10.5L10.5 17.5C10.5 17.8094 10.3771 18.1062 10.1583 18.325C9.93945 18.5437 9.6427 18.6666 9.33337 18.6666C9.02393 18.6666 8.72717 18.5437 8.50842 18.325C8.28955 18.1062 8.16663 17.8094 8.16663 17.5L8.16663 10.5C8.16663 10.1906 8.28955 9.8938 8.50842 9.67505C8.72717 9.4563 9.02393 9.33337 9.33337 9.33337ZM14 9.33337C14.3094 9.33337 14.6062 9.4563 14.825 9.67505C15.0437 9.8938 15.1666 10.1906 15.1666 10.5L15.1666 17.5C15.1666 17.8094 15.0437 18.1062 14.825 18.325C14.6062 18.5437 14.3094 18.6666 14 18.6666C13.6906 18.6666 13.3938 18.5437 13.175 18.325C12.9563 18.1062 12.8334 17.8094 12.8334 17.5L12.8334 10.5C12.8334 10.1906 12.9563 9.8938 13.175 9.67505C13.3938 9.4563 13.6906 9.33337 14 9.33337Z" fill="#FF1111" fill-opacity="1.000000" fill-rule="nonzero"/>
</svg>
