<svg width="22.804443" height="20.409424" viewBox="0 0 22.8044 20.4094" fill="none" xmlns="http://www.w3.org/2000/svg" xmlns:xlink="http://www.w3.org/1999/xlink">
	<desc>
			Created with Pixso.
	</desc>
	<defs>
		<linearGradient id="paint_linear_1_580_0" x1="11.402774" y1="1.000488" x2="11.402774" y2="13.182571" gradientUnits="userSpaceOnUse">
			<stop stop-color="#FFA509"/>
			<stop offset="1.000000" stop-color="#F66C4F"/>
		</linearGradient>
		<linearGradient id="paint_linear_1_580_1" x1="11.402774" y1="1.000488" x2="11.402774" y2="13.182571" gradientUnits="userSpaceOnUse">
			<stop stop-color="#FFA509"/>
			<stop offset="1.000000" stop-color="#F66C4F"/>
		</linearGradient>
	</defs>
	<path id="Vector" d="M2.26782 10.4092C0.0178223 7.40918 0.767822 2.90942 4.51782 1.40942C8.26782 -0.0905762 10.5178 2.90942 11.2678 4.40918C12.0178 2.90942 15.0178 -0.0905762 18.7678 1.40942C22.5178 2.90942 22.5178 7.40918 20.2678 10.4092C18.0178 13.4092 11.2678 19.4092 11.2678 19.4092C11.2678 19.4092 4.51782 13.4092 2.26782 10.4092Z" fill="url(#paint_linear_1_580_0)" fill-opacity="1.000000" fill-rule="nonzero"/>
	<path id="Vector" d="M4.51782 1.40942C8.26782 -0.0905762 10.5178 2.90942 11.2678 4.40942C12.0178 2.90942 15.0178 -0.0905762 18.7678 1.40942C22.5178 2.90942 22.5178 7.40918 20.2678 10.4092C18.0178 13.4092 11.2678 19.4092 11.2678 19.4092C11.2678 19.4092 4.51782 13.4092 2.26782 10.4092C0.0178223 7.40918 0.767822 2.90942 4.51782 1.40942Z" stroke="url(#paint_linear_1_580_1)" stroke-opacity="1.000000" stroke-width="2.000000" stroke-linejoin="round"/>
</svg>
