<svg width="28" height="28" viewBox="0 0 28 28" fill="none" xmlns="http://www.w3.org/2000/svg">
<g id="bx:search-alt" opacity="0.3">
<path id="Vector" d="M11.6667 20.9999C13.7375 20.9995 15.7486 20.3063 17.3798 19.0306L21.6837 23.3344C22.1392 23.79 22.8778 23.79 23.3333 23.3344C23.7889 22.8789 23.7889 22.1403 23.3333 21.6848L19.0295 17.3809C20.3058 15.7495 20.9995 13.7379 21 11.6666C21 6.52042 16.8128 2.33325 11.6667 2.33325C6.5205 2.33325 2.33333 6.52042 2.33333 11.6666C2.33333 16.8128 6.5205 20.9999 11.6667 20.9999ZM11.6667 4.66659C15.5272 4.66659 18.6667 7.80609 18.6667 11.6666C18.6667 15.5271 15.5272 18.6666 11.6667 18.6666C7.80616 18.6666 4.66666 15.5271 4.66666 11.6666C4.66666 7.80609 7.80616 4.66659 11.6667 4.66659Z" fill="black"/>
<path id="Vector_2" d="M13.314 10.0171C13.4736 10.1771 13.6073 10.3556 13.7131 10.5476C14.0242 11.1125 14.5228 11.6668 15.1676 11.6668C15.8117 11.6668 16.3487 11.1372 16.1896 10.5131C16.1347 10.2977 16.0643 10.0862 15.9787 9.88C15.7437 9.31369 15.3986 8.7996 14.9637 8.36743C13.4767 6.88243 11.0711 6.64756 9.2943 7.66282C8.73509 7.98235 8.73807 8.73688 9.19284 9.19295C9.64799 9.64939 10.3963 9.61505 11.0177 9.44402C11.8116 9.22557 12.7129 9.41758 13.314 10.0171Z" fill="black"/>
</g>
</svg>
