<svg width="24.000000" height="24.000000" viewBox="0 0 24 24" fill="none" xmlns="http://www.w3.org/2000/svg" xmlns:xlink="http://www.w3.org/1999/xlink">
	<desc>
			Created with Pixso.
	</desc>
	<defs>
		<linearGradient id="paint_linear_1_724_0" x1="11.999998" y1="0.000000" x2="11.999998" y2="15.882067" gradientUnits="userSpaceOnUse">
			<stop stop-color="#FFA509"/>
			<stop offset="1.000000" stop-color="#F66C4F"/>
		</linearGradient>
	</defs>
	<path id="shopping-bag (1) 1 (Traced)" d="M14.6023 0.0717773C12.9634 0.423096 11.6631 1.73511 11.3245 3.37964C11.2703 3.64282 11.25 4.00928 11.25 4.72778L11.25 5.71436L9.33984 5.7146C7.51636 5.7146 7.42261 5.71899 7.27686 5.80786C7.19287 5.85913 7.08228 5.96973 7.03101 6.05371C6.94214 6.19946 6.93774 6.29346 6.9375 8.07031L6.9375 9.93408L11.6602 9.93506C16.8074 9.93579 16.7654 9.93384 17.2612 10.2017C17.8042 10.4949 18.2253 11.092 18.3289 11.7158C18.3635 11.925 18.3748 13.6523 18.3645 17.2253C18.3508 22.0061 18.343 22.4521 18.2681 22.7036C18.1528 23.0906 18.0076 23.4219 17.8274 23.7083C17.7419 23.8442 17.6719 23.9656 17.6719 23.978C17.6719 23.9905 18.6897 24.0002 19.9336 24C22.3357 23.9995 22.4346 23.9915 22.8718 23.7681C23.1377 23.6321 23.5537 23.2388 23.7053 22.9797C23.7705 22.8689 23.8633 22.6504 23.9119 22.4941C23.9968 22.2209 24.0002 21.9148 24 14.2085C23.9998 6.30664 23.9988 6.20459 23.9067 6.05371C23.8555 5.96973 23.7449 5.85913 23.6606 5.80786C23.5149 5.71899 23.4211 5.7146 21.5979 5.7146L19.6875 5.71436L19.6875 4.72778C19.6875 4.01025 19.6672 3.64233 19.6133 3.37964C19.2729 1.72437 17.9585 0.409668 16.3027 0.0683594C15.8535 -0.0241699 15.0427 -0.0224609 14.6023 0.0717773ZM16.2239 1.52295C16.9314 1.73096 17.5935 2.26147 17.9141 2.87769C18.2139 3.45386 18.2449 3.61426 18.2695 4.71802L18.2917 5.71436L15.4741 5.71436L12.6562 5.71436L12.6567 4.90552C12.6567 4.46069 12.6787 3.96216 12.7056 3.79761C12.8977 2.61279 13.8337 1.65991 15.012 1.44971C15.3279 1.39331 15.9009 1.42798 16.2239 1.52295ZM0.339355 11.4343C0.255127 11.4856 0.144531 11.5962 0.0932617 11.6804C0.00195312 11.8303 0.000244141 11.927 0 17.0173C-0.000244141 21.6472 0.0078125 22.229 0.0751953 22.4563C0.1875 22.835 0.311279 23.0508 0.578613 23.3335C0.86084 23.6318 1.11475 23.7905 1.50562 23.9121C1.77808 23.9971 2.05737 24.0005 8.47681 24C15.6309 23.9993 15.3721 24.0076 15.8403 23.7681C16.1064 23.6321 16.5222 23.2388 16.6741 22.9797C16.739 22.8689 16.832 22.6504 16.8806 22.4941C16.9648 22.2234 16.9688 21.9724 16.9688 17.0217C16.9685 11.927 16.9668 11.8303 16.8752 11.6804C16.824 11.5962 16.7134 11.4856 16.6294 11.4343C16.4785 11.3423 16.377 11.3411 8.48438 11.3411C0.591797 11.3411 0.48999 11.3423 0.339355 11.4343ZM5.29395 14.2883C5.57324 14.49 5.59741 14.5691 5.62769 15.387C5.65063 16.0037 5.67578 16.2043 5.76172 16.4517C6.05103 17.2849 6.70361 17.9387 7.54688 18.2402C7.80396 18.3323 7.94287 18.3491 8.4375 18.3491C8.93188 18.3491 9.07104 18.3323 9.32812 18.2402C10.1711 17.9387 10.8228 17.2859 11.1135 16.4517C11.2004 16.2026 11.2246 16.0081 11.2466 15.3882C11.2756 14.5657 11.2969 14.4978 11.5925 14.2769C11.7646 14.1484 12.1416 14.1484 12.3137 14.2769C12.5811 14.4766 12.6282 14.5913 12.6484 15.0916C12.7029 16.4504 12.3113 17.5671 11.4692 18.4539C9.86597 20.1418 7.23999 20.2039 5.54517 18.5933C4.70386 17.7942 4.28979 16.8357 4.23315 15.5576C4.19922 14.7939 4.22583 14.6245 4.41333 14.4111C4.64209 14.1501 5.02808 14.0964 5.29395 14.2883Z" fill="url(#paint_linear_1_724_0)" fill-opacity="1.000000" fill-rule="evenodd"/>
</svg>
