<svg width="28" height="28" viewBox="0 0 28 28" fill="none" xmlns="http://www.w3.org/2000/svg">
<g id="akar-icons:person">
<g id="Group">
<path id="Vector" d="M13.9997 13.9999C17.2214 13.9999 19.8331 11.3882 19.8331 8.16658C19.8331 4.94492 17.2214 2.33325 13.9997 2.33325C10.7781 2.33325 8.16641 4.94492 8.16641 8.16658C8.16641 11.3882 10.7781 13.9999 13.9997 13.9999Z" stroke="black" stroke-width="1.5"/>
<path id="Vector_2" d="M19.8331 16.3333H20.2437C21.0967 16.3335 21.9202 16.6452 22.5595 17.2097C23.1988 17.7743 23.61 18.5529 23.7157 19.3993L24.1719 23.0439C24.2129 23.3723 24.1837 23.7056 24.086 24.0217C23.9884 24.3379 23.8247 24.6296 23.6056 24.8777C23.3866 25.1257 23.1174 25.3243 22.8157 25.4603C22.5141 25.5964 22.187 25.6667 21.8561 25.6666H6.14341C5.81252 25.6667 5.48541 25.5964 5.18377 25.4603C4.88213 25.3243 4.61286 25.1257 4.39385 24.8777C4.17484 24.6296 4.01108 24.3379 3.91345 24.0217C3.81582 23.7056 3.78655 23.3723 3.82758 23.0439L4.28258 19.3993C4.38839 18.5525 4.7999 17.7736 5.43972 17.209C6.07953 16.6444 6.90359 16.3329 7.75691 16.3333H8.16641" stroke="black" stroke-width="1.5" stroke-linecap="round" stroke-linejoin="round"/>
</g>
</g>
</svg>
