<svg width="36.000000" height="36.000000" viewBox="0 0 36 36" fill="none" xmlns="http://www.w3.org/2000/svg" xmlns:xlink="http://www.w3.org/1999/xlink">
	<desc>
			Created with Pixso.
	</desc>
	<defs>
		<clipPath id="clip1_4399">
			<rect width="36.000000" height="36.000000" fill="white" fill-opacity="0"/>
		</clipPath>
	</defs>
	<rect width="36.000000" height="36.000000" fill="#FFFFFF" fill-opacity="0"/>
	<g clip-path="url(#clip1_4399)">
		<path d="M31.5 9.375C31.5 8.08203 30.9863 6.84229 30.0723 5.92773C29.1582 5.01367 27.918 4.5 26.625 4.5L9.375 4.5C8.08203 4.5 6.8418 5.01367 5.92773 5.92773C5.01367 6.84229 4.5 8.08203 4.5 9.375L4.5 26.625C4.5 27.918 5.01367 29.1577 5.92773 30.0723C6.8418 30.9863 8.08203 31.5 9.375 31.5L18.0332 31.5C17.583 30.7988 17.2256 30.0425 16.9697 29.25L9.375 29.25C8.67871 29.25 8.01074 28.9736 7.51855 28.481C7.02637 27.9888 6.75 27.3213 6.75 26.625L6.75 12.75L29.25 12.75L29.25 16.9697C30.043 17.2261 30.7988 17.5835 31.5 18.0332L31.5 9.375ZM9.375 6.75L26.625 6.75C28.0742 6.75 29.25 7.92578 29.25 9.375L29.25 10.5L6.75 10.5L6.75 9.375C6.75 7.92578 7.92578 6.75 9.375 6.75Z" fill="#000000" fill-opacity="1.000000" fill-rule="nonzero"/>
		<path d="M18 25.875C18 30.2227 21.5273 33.75 25.875 33.75C30.2227 33.75 33.75 30.2227 33.75 25.875C33.75 21.5273 30.2227 18 25.875 18C21.5273 18 18 21.5273 18 25.875Z" stroke="#000000" stroke-opacity="1.000000" stroke-width="2.000000"/>
		<path d="M25.875 20.625L25.875 26.5312L29.8125 26.5312" stroke="#000000" stroke-opacity="1.000000" stroke-width="1.800000" stroke-linejoin="round" stroke-linecap="round"/>
	</g>
</svg>
