<svg width="36.000000" height="36.000000" viewBox="0 0 36 36" fill="none" xmlns="http://www.w3.org/2000/svg" xmlns:xlink="http://www.w3.org/1999/xlink">
	<desc>
			Created with Pixso.
	</desc>
	<defs>
		<clipPath id="clip1_4387">
			<rect width="36.000000" height="36.000000" fill="white" fill-opacity="0"/>
		</clipPath>
	</defs>
	<rect width="36.000000" height="36.000000" fill="#FFFFFF" fill-opacity="0"/>
	<g clip-path="url(#clip1_4387)">
		<path d="M3.59961 12.1504C3.59961 10.8374 4.12109 9.57812 5.0498 8.6499C5.97754 7.72168 7.23633 7.2002 8.5498 7.2002L27.4492 7.2002C28.7627 7.2002 30.0215 7.72168 30.9502 8.6499C31.8779 9.57812 32.3994 10.8374 32.3994 12.1504L32.3994 23.8501C32.3994 25.1631 31.8779 26.4219 30.9502 27.3506C30.0215 28.2788 28.7627 28.8003 27.4492 28.8003L8.5498 28.8003C7.23633 28.8003 5.97754 28.2788 5.0498 27.3506C4.12109 26.4219 3.59961 25.1631 3.59961 23.8501L3.59961 12.1504ZM8.5498 9C7.71387 9 6.91309 9.33203 6.32227 9.92285C5.73145 10.5137 5.39941 11.3149 5.39941 12.1504L5.39941 23.8501C5.39941 25.5889 6.81055 27 8.5498 27L27.4492 27C28.2852 27 29.0859 26.6685 29.6768 26.0776C30.2676 25.4868 30.5996 24.6855 30.5996 23.8501L30.5996 12.1504C30.5996 11.3149 30.2676 10.5137 29.6768 9.92285C29.0859 9.33203 28.2852 9 27.4492 9L8.5498 9ZM19.7998 11.7002C19.7998 11.4614 19.8945 11.2324 20.0635 11.064C20.2324 10.895 20.4609 10.8003 20.6992 10.8003L24.2998 10.8003C24.5381 10.8003 24.7676 10.895 24.9355 11.064C25.1045 11.2324 25.1992 11.4614 25.1992 11.7002L25.1992 15.3003C25.1992 15.5391 25.1045 15.7676 24.9355 15.9365C24.7676 16.1055 24.5381 16.2002 24.2998 16.2002C24.0605 16.2002 23.832 16.1055 23.6631 15.9365C23.4941 15.7676 23.3994 15.5391 23.3994 15.3003L23.3994 13.8726L20.4365 16.8374C20.2676 17.0063 20.0391 17.1016 19.7998 17.1016C19.5605 17.1016 19.3311 17.0063 19.1621 16.8374C18.9932 16.6685 18.8984 16.439 18.8984 16.2002C18.8984 15.9614 18.9932 15.7319 19.1621 15.563L22.127 12.6001L20.6992 12.6001C20.4609 12.6001 20.2324 12.5054 20.0635 12.3364C19.8945 12.168 19.7998 11.939 19.7998 11.7002ZM15.5625 19.1631C15.7314 18.9941 15.9609 18.8989 16.1992 18.8989C16.4385 18.8989 16.668 18.9941 16.8369 19.1631C17.0059 19.332 17.1006 19.561 17.1006 19.8003C17.1006 20.0391 17.0059 20.2686 16.8369 20.4375L13.8721 23.4004L15.2998 23.4004C15.5381 23.4004 15.7676 23.4951 15.9355 23.6636C16.1045 23.8325 16.1992 24.0615 16.1992 24.3003C16.1992 24.5391 16.1045 24.7676 15.9355 24.9365C15.7676 25.1055 15.5381 25.2002 15.2998 25.2002L11.6992 25.2002C11.4609 25.2002 11.2324 25.1055 11.0635 24.9365C10.8945 24.7676 10.7998 24.5391 10.7998 24.3003L10.7998 20.7002C10.7998 20.4614 10.8945 20.2324 11.0635 20.064C11.2324 19.895 11.4609 19.8003 11.6992 19.8003C11.9385 19.8003 12.167 19.895 12.3359 20.064C12.5049 20.2324 12.5996 20.4614 12.5996 20.7002L12.5996 22.1274L15.5625 19.1631Z" fill="#000000" fill-opacity="1.000000" fill-rule="nonzero"/>
	</g>
</svg>
