<svg width="36.000000" height="36.000000" viewBox="0 0 36 36" fill="none" xmlns="http://www.w3.org/2000/svg" xmlns:xlink="http://www.w3.org/1999/xlink">
	<desc>
			Created with Pixso.
	</desc>
	<defs>
		<clipPath id="clip1_4403">
			<rect width="36.000000" height="36.000000" fill="white" fill-opacity="0"/>
		</clipPath>
	</defs>
	<rect width="36.000000" height="36.000000" fill="#FFFFFF" fill-opacity="0"/>
	<g clip-path="url(#clip1_4403)">
		<path d="M21.0059 15.3667C20.8633 15.3657 20.7266 15.4214 20.624 15.521C20.5225 15.6211 20.4639 15.7568 20.4619 15.8994L20.4619 19.8813C20.4639 20.0239 20.5225 20.1606 20.625 20.2603C20.7275 20.3604 20.8652 20.4155 21.0078 20.4141L33.001 20.4141C33.1445 20.4155 33.2822 20.3604 33.3838 20.2603C33.4863 20.1606 33.5449 20.0239 33.5469 19.8813L33.5469 15.8994C33.5449 15.7568 33.4863 15.6206 33.3838 15.5205C33.2822 15.4204 33.1445 15.3652 33.001 15.3667L21.0078 15.3667L21.0059 15.3667ZM28.3604 2.70215C30.0205 2.78125 31.2139 3.10889 31.9697 3.80371C32.7168 4.49121 33.1006 5.48682 33.1758 6.8042L33.1758 10.5786C33.1719 10.9004 33.041 11.207 32.8105 11.4316C32.5811 11.6567 32.2715 11.7808 31.9502 11.7778C31.791 11.7793 31.6328 11.75 31.4844 11.6909C31.3369 11.6313 31.2021 11.5439 31.0879 11.4326C30.9736 11.3213 30.8828 11.1885 30.8203 11.042C30.7578 10.8955 30.7246 10.7383 30.7227 10.5786L30.7246 6.87256C30.6846 6.18848 30.5205 5.76367 30.2871 5.54785C30.0596 5.33887 29.3691 5.15186 28.3018 5.09766L4.76465 5.09766C3.79785 5.13379 3.16992 5.31738 2.86523 5.57861C2.63184 5.77832 2.45508 6.3291 2.45312 7.28125L2.44824 28.4673C2.53809 29.3926 2.74121 30.0098 3.00195 30.3174C3.2002 30.5518 3.81445 30.7856 4.71777 30.9009L28.3262 30.9009C29.4316 30.9224 30.083 30.7568 30.3027 30.5352C30.5459 30.2886 30.7227 29.6406 30.7227 28.5806L30.7227 24.8994C30.7227 24.2388 31.2715 23.7007 31.9502 23.7007C32.627 23.7007 33.1758 24.2388 33.1758 24.8994L33.1758 28.5806C33.1758 30.2007 32.8447 31.4121 32.0684 32.1987C31.2695 33.0088 29.999 33.3325 28.3018 33.2964L4.57227 33.291C2.95703 33.104 1.7998 32.6611 1.11035 31.8457C0.486328 31.1079 0.138672 30.0547 0 28.5825L0 7.2793C0.00390625 5.70264 0.381836 4.5166 1.24902 3.7749C2.04492 3.09082 3.19336 2.75781 4.71777 2.7002L28.3604 2.7002L28.3604 2.70215ZM33.001 12.9692C34.6572 12.9692 36 14.2812 36 15.8994L36 19.8813C36 21.4995 34.6572 22.8115 33.001 22.8115L21.0078 22.8115C19.3516 22.8115 18.0088 21.4976 18.0088 19.8813L18.0088 15.8994C18.0088 14.2812 19.3516 12.9692 21.0078 12.9692L33.001 12.9692ZM24.0068 16.4614C23.1787 16.4614 22.5068 17.1094 22.5068 17.9067C22.5068 18.7056 23.1787 19.3521 24.0068 19.3521C24.835 19.3521 25.5059 18.7041 25.5059 17.9067C25.5059 17.1074 24.835 16.4595 24.0068 16.4595L24.0068 16.4614Z" fill="#FFFFFF" fill-opacity="1.000000" fill-rule="nonzero"/>
	</g>
</svg>
